<?xml version="1.0" encoding="utf-8"?>
<!-- Generator: Adobe Illustrator 16.0.0, SVG Export Plug-In . SVG Version: 6.00 Build 0)  -->
<!DOCTYPE svg PUBLIC "-//W3C//DTD SVG 1.1//EN" "http://www.w3.org/Graphics/SVG/1.1/DTD/svg11.dtd">
<svg version="1.1" id="Layer_1" xmlns="http://www.w3.org/2000/svg" xmlns:xlink="http://www.w3.org/1999/xlink" x="0px" y="0px"
	 width="134px" height="55px" viewBox="0 0 134 55" enable-background="new 0 0 134 55" xml:space="preserve">
<rect fill="#FFFFFF" width="134" height="55"/>
<path fill="#BCBCBC" d="M43.81,13.822c-0.013-0.546-0.403-1.019-0.95-1.092c-2.547-0.349-5.061-0.959-7.523-1.861
	c-2.452-0.899-5.164-2.153-8.09-3.804c-0.371-0.209-0.72-0.209-1.091,0c-2.907,1.651-5.6,2.902-8.071,3.804
	c-2.462,0.898-4.976,1.512-7.502,1.861c-0.547,0.077-0.931,0.545-0.992,1.092C9.348,24.2,11.621,32.689,16.387,39.291
	c2.595,3.596,5.844,6.514,9.769,8.737c0.303,0.224,0.777,0.206,1.131,0c3.894-2.261,7.138-5.158,9.729-8.737
	C41.787,32.694,44.042,24.2,43.81,13.822z"/>
<path fill="#3DC500" d="M35.195,38.017c-2.252,3.11-5.078,5.704-8.495,7.788c-3.419-2.084-6.257-4.67-8.494-7.788
	c-4.336-6.044-6.451-13.776-6.371-23.202c2.387-0.385,4.753-1.032,7.119-1.903c2.366-0.87,4.956-2.063,7.747-3.58
	c2.792,1.517,5.36,2.709,7.726,3.58c2.366,0.871,4.753,1.518,7.14,1.903C41.646,24.302,39.516,32.043,35.195,38.017z"/>
<path fill="#4C4C4C" d="M50.669,14.038c-0.127,0.105-0.191,0.244-0.191,0.417c0,0.173,0.078,0.31,0.234,0.412
	c0.156,0.102,0.515,0.223,1.08,0.361c0.563,0.139,1.001,0.347,1.313,0.625c0.312,0.278,0.468,0.684,0.468,1.216
	s-0.2,0.965-0.599,1.296c-0.4,0.332-0.926,0.498-1.577,0.498c-0.941,0-1.788-0.348-2.542-1.045l0.791-0.97
	c0.64,0.561,1.232,0.842,1.776,0.842c0.244,0,0.435-0.053,0.574-0.157c0.139-0.105,0.208-0.247,0.208-0.425
	c0-0.178-0.074-0.32-0.221-0.425s-0.439-0.211-0.875-0.319c-0.691-0.164-1.197-0.378-1.517-0.642
	c-0.32-0.264-0.481-0.678-0.481-1.242c0-0.563,0.203-0.999,0.608-1.305c0.405-0.306,0.911-0.459,1.517-0.459
	c0.396,0,0.793,0.068,1.19,0.205c0.396,0.136,0.742,0.329,1.037,0.578l-0.671,0.97c-0.516-0.392-1.048-0.587-1.598-0.587
	C50.972,13.88,50.797,13.933,50.669,14.038z"/>
<path fill="#4C4C4C" d="M58.035,18.795h-1.199v-0.553c-0.329,0.414-0.735,0.621-1.22,0.621c-0.485,0-0.891-0.14-1.22-0.421
	c-0.329-0.28-0.493-0.654-0.493-1.122s0.17-0.818,0.51-1.051c0.34-0.232,0.805-0.348,1.394-0.348h0.952v-0.025
	c0-0.487-0.258-0.731-0.773-0.731c-0.222,0-0.455,0.044-0.702,0.132c-0.247,0.087-0.455,0.197-0.625,0.327l-0.569-0.825
	c0.6-0.437,1.286-0.655,2.057-0.655c0.556,0,1.009,0.139,1.36,0.417s0.527,0.717,0.527,1.318V18.795z M56.752,17.052v-0.221h-0.799
	c-0.511,0-0.766,0.159-0.766,0.476c0,0.164,0.061,0.291,0.183,0.378c0.122,0.087,0.296,0.131,0.522,0.131s0.426-0.069,0.6-0.208
	C56.665,17.47,56.752,17.285,56.752,17.052z"/>
<path fill="#4C4C4C" d="M60.262,13.957v0.306h1.105v0.918h-1.105v3.613h-1.283v-3.613h-0.536v-0.918h0.536v-0.281
	c0-0.499,0.151-0.894,0.455-1.187c0.303-0.292,0.68-0.438,1.13-0.438c0.451,0,0.86,0.17,1.229,0.51l-0.459,0.859
	c-0.187-0.215-0.394-0.323-0.621-0.323c-0.131,0-0.238,0.047-0.323,0.14C60.305,13.638,60.262,13.776,60.262,13.957z"/>
<path fill="#4C4C4C" d="M65.694,18.132c-0.516,0.487-1.121,0.731-1.815,0.731s-1.268-0.213-1.721-0.642
	c-0.453-0.428-0.68-1.002-0.68-1.722c0-0.72,0.23-1.292,0.693-1.717c0.461-0.425,1.007-0.638,1.636-0.638
	c0.629,0,1.163,0.19,1.603,0.57c0.439,0.38,0.659,0.901,0.659,1.564v0.68h-3.332c0.039,0.25,0.17,0.454,0.391,0.612
	s0.47,0.238,0.748,0.238c0.448,0,0.816-0.15,1.105-0.451L65.694,18.132z M64.47,15.419c-0.176-0.147-0.39-0.221-0.642-0.221
	s-0.483,0.077-0.692,0.229c-0.209,0.153-0.332,0.36-0.366,0.621h2.006C64.748,15.776,64.646,15.567,64.47,15.419z"/>
<path fill="#4C4C4C" d="M71.109,18.795h-2.602v-5.943h2.313c0.402,0,0.75,0.048,1.041,0.145c0.292,0.097,0.512,0.227,0.658,0.392
	c0.268,0.306,0.4,0.652,0.4,1.037c0,0.465-0.15,0.811-0.451,1.038c-0.102,0.08-0.172,0.129-0.213,0.148
	c-0.039,0.021-0.11,0.053-0.211,0.099c0.367,0.079,0.66,0.245,0.879,0.497c0.219,0.253,0.328,0.565,0.328,0.939
	c0,0.414-0.143,0.78-0.426,1.097C72.498,18.611,71.926,18.795,71.109,18.795z M69.834,15.258h0.629c0.368,0,0.643-0.04,0.82-0.119
	c0.179-0.08,0.268-0.251,0.268-0.515s-0.082-0.438-0.246-0.523s-0.441-0.127-0.833-0.127h-0.638V15.258z M69.834,17.673h0.909
	c0.38,0,0.665-0.047,0.854-0.141c0.189-0.093,0.285-0.277,0.285-0.552s-0.101-0.456-0.303-0.544
	c-0.201-0.088-0.521-0.131-0.965-0.131h-0.781V17.673z"/>
<path fill="#4C4C4C" d="M76.218,15.343c-0.38,0-0.663,0.134-0.851,0.404c-0.187,0.269-0.279,0.625-0.279,1.067v1.981h-1.275v-4.575
	h1.275v0.604c0.164-0.187,0.369-0.346,0.615-0.476c0.247-0.13,0.498-0.198,0.753-0.204l0.009,1.199H76.218z"/>
<path fill="#4C4C4C" d="M81.387,16.508c0,0.664-0.229,1.222-0.688,1.675c-0.459,0.454-1.036,0.68-1.729,0.68
	c-0.695,0-1.271-0.226-1.73-0.68c-0.459-0.454-0.688-1.012-0.688-1.675c0-0.663,0.229-1.222,0.688-1.679
	c0.459-0.456,1.036-0.684,1.73-0.684c0.693,0,1.271,0.229,1.729,0.684C81.157,15.285,81.387,15.845,81.387,16.508z M77.833,16.508
	c0,0.375,0.106,0.679,0.319,0.915c0.212,0.235,0.484,0.353,0.815,0.353s0.604-0.118,0.815-0.353c0.213-0.235,0.319-0.54,0.319-0.915
	c0-0.374-0.106-0.68-0.319-0.918c-0.211-0.238-0.483-0.357-0.815-0.357c-0.331,0-0.604,0.119-0.815,0.357
	C77.939,15.828,77.833,16.134,77.833,16.508z"/>
<path fill="#4C4C4C" d="M84.2,18.795h-1.317l-1.556-4.574h1.317l0.893,2.763l0.893-2.763h1.232l0.893,2.763l0.893-2.763h1.327
	l-1.556,4.574h-1.326l-0.842-2.491L84.2,18.795z"/>
<path fill="#4C4C4C" d="M92.438,17.371c0,0.451-0.166,0.812-0.498,1.083c-0.331,0.272-0.752,0.408-1.262,0.408
	c-0.34,0-0.695-0.061-1.063-0.183c-0.369-0.122-0.7-0.301-0.995-0.54l0.562-0.799c0.477,0.368,0.982,0.553,1.521,0.553
	c0.164,0,0.295-0.033,0.391-0.098c0.098-0.065,0.145-0.151,0.145-0.259c0-0.107-0.066-0.207-0.199-0.298s-0.326-0.175-0.578-0.255
	c-0.252-0.079-0.445-0.147-0.578-0.204c-0.133-0.057-0.284-0.139-0.455-0.247c-0.346-0.215-0.518-0.534-0.518-0.957
	s0.17-0.767,0.51-1.033s0.779-0.399,1.318-0.399c0.538,0,1.076,0.181,1.615,0.544l-0.477,0.851
	c-0.396-0.272-0.792-0.408-1.186-0.408c-0.395,0-0.592,0.107-0.592,0.323c0,0.119,0.063,0.213,0.188,0.281
	c0.125,0.067,0.331,0.147,0.621,0.238c0.289,0.09,0.494,0.16,0.615,0.208c0.123,0.048,0.27,0.124,0.438,0.225
	C92.278,16.599,92.438,16.92,92.438,17.371z"/>
<path fill="#4C4C4C" d="M93.096,13.638c-0.145-0.145-0.217-0.322-0.217-0.531s0.072-0.387,0.217-0.531
	c0.145-0.145,0.322-0.217,0.531-0.217c0.21,0,0.387,0.072,0.531,0.217c0.145,0.145,0.217,0.322,0.217,0.531
	s-0.072,0.387-0.217,0.531s-0.321,0.217-0.531,0.217C93.418,13.855,93.24,13.783,93.096,13.638z M94.265,18.795H92.99v-4.575h1.274
	V18.795z"/>
<path fill="#4C4C4C" d="M96.322,16.245v2.551h-1.275v-4.575h1.275v0.51c0.385-0.391,0.818-0.587,1.301-0.587
	c0.481,0,0.885,0.17,1.211,0.51c0.326,0.34,0.488,0.793,0.488,1.36v2.781h-1.274V16.21c0-0.703-0.259-1.054-0.774-1.054
	c-0.254,0-0.477,0.092-0.667,0.276C96.417,15.617,96.322,15.887,96.322,16.245z"/>
<path fill="#4C4C4C" d="M103.438,18.021c-0.402,0.448-0.902,0.672-1.5,0.672c-0.599,0-1.103-0.203-1.514-0.608
	c-0.41-0.405-0.617-0.946-0.617-1.624s0.211-1.233,0.635-1.667c0.422-0.434,0.904-0.651,1.449-0.651
	c0.543,0,0.994,0.224,1.352,0.672v-0.604h1.275V18.2c0,0.408-0.072,0.771-0.213,1.088c-0.142,0.317-0.332,0.567-0.57,0.748
	c-0.471,0.375-1.025,0.562-1.666,0.562c-0.34,0-0.688-0.055-1.041-0.166c-0.354-0.11-0.666-0.268-0.93-0.472L100.59,19
	c0.419,0.317,0.862,0.476,1.33,0.476c0.469,0,0.837-0.116,1.109-0.349C103.301,18.895,103.438,18.526,103.438,18.021z
	 M103.258,16.41c0-0.365-0.102-0.653-0.306-0.863c-0.204-0.209-0.456-0.314-0.757-0.314s-0.56,0.105-0.777,0.314
	c-0.218,0.21-0.327,0.497-0.327,0.859c0,0.363,0.106,0.656,0.318,0.88c0.213,0.224,0.472,0.336,0.778,0.336
	c0.306,0,0.561-0.111,0.765-0.332C103.156,17.069,103.258,16.776,103.258,16.41z"/>
<path fill="#3EB500" d="M41.566,14.814c-2.387-0.385-4.774-1.032-7.14-1.903c-2.366-0.87-4.934-2.063-7.725-3.58
	c-0.05,0.027-0.1,0.053-0.15,0.08v36.3c0.051,0.03,0.1,0.063,0.15,0.093c3.417-2.084,6.243-4.678,8.494-7.787
	C39.516,32.043,41.646,24.302,41.566,14.814z"/>
<path fill="#4A7C2F" d="M36.611,21.578c0,0.329-0.115,0.608-0.345,0.838l-8.93,8.932l-1.677,1.679
	c-0.231,0.23-0.511,0.346-0.839,0.346s-0.608-0.115-0.839-0.346l-1.677-1.679l-4.465-4.466c-0.231-0.23-0.346-0.51-0.346-0.838
	c0-0.329,0.115-0.609,0.346-0.839l1.677-1.678c0.23-0.229,0.509-0.346,0.838-0.346s0.608,0.116,0.838,0.346l3.626,3.64l8.092-8.105
	c0.229-0.231,0.509-0.346,0.838-0.346s0.608,0.115,0.839,0.346l1.677,1.677C36.496,20.969,36.611,21.249,36.611,21.578z"/>
<path fill="#FFFFFF" d="M36.444,20.91c0,0.328-0.115,0.608-0.345,0.838l-8.93,8.934l-1.677,1.678
	c-0.231,0.23-0.511,0.346-0.84,0.346c-0.328,0-0.607-0.115-0.838-0.346l-1.677-1.678l-4.465-4.467
	c-0.231-0.23-0.346-0.51-0.346-0.839c0-0.329,0.115-0.608,0.346-0.839l1.677-1.678c0.23-0.23,0.509-0.346,0.838-0.346
	s0.608,0.116,0.838,0.346l3.626,3.639l8.092-8.105c0.23-0.231,0.509-0.345,0.838-0.345c0.328,0,0.607,0.114,0.838,0.345l1.678,1.678
	C36.329,20.301,36.444,20.581,36.444,20.91z"/>
<path fill="#4885ED" d="M66.099,30.778H57.14v2.658h6.354c-0.314,3.729-3.416,5.319-6.343,5.319c-3.746,0-7.014-2.947-7.014-7.079
	c0-4.024,3.115-7.124,7.022-7.124c3.014,0,4.79,1.921,4.79,1.921l1.861-1.928c0,0-2.389-2.66-6.747-2.66
	c-5.548,0-9.841,4.684-9.841,9.743c0,4.957,4.038,9.792,9.982,9.792c5.229,0,9.056-3.583,9.056-8.88
	C66.26,31.424,66.099,30.777,66.099,30.778L66.099,30.778z"/>
<path fill="#DB3236" d="M73.438,28.853c-3.676,0-6.311,2.874-6.311,6.228c0,3.401,2.555,6.329,6.354,6.329
	c3.438,0,6.256-2.629,6.256-6.257C79.736,30.994,76.459,28.853,73.438,28.853z M73.475,31.318c1.807,0,3.52,1.463,3.52,3.817
	c0,2.306-1.705,3.81-3.528,3.81c-2.003,0-3.585-1.605-3.585-3.827C69.881,32.943,71.443,31.318,73.475,31.318z"/>
<path fill="#F4C20D" d="M87.162,28.853c-3.677,0-6.311,2.874-6.311,6.228c0,3.401,2.555,6.329,6.354,6.329
	c3.438,0,6.256-2.629,6.256-6.257C93.461,30.994,90.184,28.853,87.162,28.853z M87.198,31.318c1.808,0,3.521,1.463,3.521,3.817
	c0,2.306-1.706,3.81-3.529,3.81c-2.003,0-3.584-1.605-3.584-3.827C83.605,32.943,85.167,31.318,87.198,31.318z"/>
<path fill="#4885ED" d="M100.623,28.859c-3.374,0-6.026,2.955-6.026,6.273c0,3.779,3.075,6.285,5.968,6.285
	c1.791,0,2.74-0.711,3.443-1.525v1.237c0,2.167-1.314,3.464-3.3,3.464c-1.917,0-2.879-1.426-3.214-2.235l-2.412,1.009
	c0.855,1.81,2.578,3.697,5.646,3.697c3.354,0,5.912-2.113,5.912-6.547V29.236h-2.633V30.3
	C103.198,29.428,102.092,28.859,100.623,28.859z M100.867,31.32c1.654,0,3.354,1.413,3.354,3.826c0,2.451-1.695,3.804-3.39,3.804
	c-1.799,0-3.473-1.461-3.473-3.78C97.357,32.759,99.097,31.32,100.867,31.32z"/>
<path fill="#DB3236" d="M118.342,28.844c-3.183,0-5.855,2.533-5.855,6.271c0,3.954,2.979,6.299,6.16,6.299
	c2.656,0,4.287-1.453,5.26-2.756l-2.17-1.443c-0.563,0.874-1.506,1.729-3.075,1.729c-1.765,0-2.576-0.967-3.079-1.902l8.416-3.494
	l-0.438-1.023C122.748,30.519,120.852,28.845,118.342,28.844z M118.451,31.26c1.146,0,1.973,0.609,2.322,1.34l-5.621,2.351
	C114.911,33.131,116.634,31.26,118.451,31.26z"/>
<path fill="#3CBA54" d="M108.475,41.041h2.765V22.535h-2.765V41.041z"/>
</svg>
